<svg width="256" height="40" viewBox="0 0 256 40" fill="none" xmlns="http://www.w3.org/2000/svg">
<path d="M0.760434 39V0.868423H10.392V6.28947H5.81307V17.3684H10.392V22.4737H5.81307V33.5789H10.392V39H0.760434ZM13.1979 39V0.868423H18.7506L20.619 17.1579C20.7242 17.7368 21.04 20.5526 21.1979 22.2895L21.4348 22.2632C21.3558 20.5263 21.2242 17.7632 21.2242 17.1579L20.8295 0.868423H25.619V39H20.0137L18.0664 21.8684C17.9874 21.2895 17.7242 19.1316 17.5664 17.5526L17.3558 17.5789C17.4611 19.2368 17.619 21.9211 17.619 22.5526L17.9874 39H13.1979ZM31.3511 39V6.28947H28.1406V0.868423H39.6669V6.28947H36.4564V39H31.3511ZM42.2233 39V0.868423H51.8549V6.28947H47.276V17.3684H51.8549V22.4737H47.276V33.5789H51.8549V39H42.2233ZM54.6608 39V0.842108H60.7398C63.5819 0.842108 66.9766 1.86842 66.9766 6.60527V17.0526C66.9766 18.6053 65.7135 21.0526 64.1345 21.0526V21.2632C65.4503 21.2632 66.5556 22.8421 66.5556 24.8421C66.5556 26.2105 66.6345 37.8684 66.6871 39H61.3977V24.6316C61.3977 24.6053 61.3187 23.3421 60.4503 23.3421H59.7135V39H54.6608ZM59.7135 18.3947H60.6871C61.6082 18.3947 61.6871 17.7368 61.6871 17.5V7.21053C61.6871 7 61.6345 6.26316 60.6608 6.26316L59.7135 6.28947V18.3947ZM76.1549 39V24.7105L71.8128 0.842108H77.2338L78.4443 12.3158C78.497 12.7632 78.5759 14.0526 78.5759 14.5263H78.7864C78.7864 14.0526 78.8917 12.7632 78.9707 12.3158L80.3128 0.842108H85.6812L81.3391 24.7368V39H76.1549ZM92.2826 39.3158C86.3879 39.3158 86.3879 34.4737 86.3879 31.8947V7.92105C86.3879 5.34211 86.4142 0.526316 92.2826 0.473686H92.5721C98.4405 0.526316 98.4668 5.34211 98.4668 7.92105V31.8947C98.4668 34.4737 98.4668 39.3158 92.5721 39.3158H92.2826ZM91.4142 31.5C91.4142 33.3421 91.5458 33.8947 92.3879 33.8947H92.4668C93.2826 33.8684 93.4405 33.3158 93.4405 31.5V8.34211C93.4405 6.5 93.309 5.94737 92.4668 5.92106H92.3879C91.5458 5.94737 91.4142 6.52632 91.4142 8.34211V31.5ZM106.779 39.3421C101.042 39.3158 101.042 34.3158 101.042 31.9211V0.868423H106.121V31.2895C106.121 33.2105 106.252 33.8947 106.989 33.9211H107.042C107.779 33.8947 107.91 33.2105 107.91 31.2895V0.868423H112.989V31.9211C112.989 34.3158 112.963 39.3158 107.252 39.3421H106.779ZM115.823 39V0.842108H121.902C124.744 0.842108 128.139 1.86842 128.139 6.60527V17.0526C128.139 18.6053 126.876 21.0526 125.297 21.0526V21.2632C126.612 21.2632 127.718 22.8421 127.718 24.8421C127.718 26.2105 127.797 37.8684 127.849 39H122.56V24.6316C122.56 24.6053 122.481 23.3421 121.612 23.3421H120.876V39H115.823ZM120.876 18.3947H121.849C122.77 18.3947 122.849 17.7368 122.849 17.5V7.21053C122.849 7 122.797 6.26316 121.823 6.26316L120.876 6.28947V18.3947ZM135.864 39V0.868423H141.206V33.5789H145.417V39H135.864ZM147.219 39L150.982 0.868423H157.956L161.719 39H156.561L155.824 30.8684H153.14L152.324 39H147.219ZM153.456 25.8158L153.508 25.8684L153.614 25.8421C153.745 25.8158 153.772 25.8158 153.903 25.8158H155.035C155.14 25.8158 155.219 25.8158 155.324 25.8421L155.43 25.8684L155.508 25.8158L155.456 25.6579C155.43 25.5789 155.43 25.3947 155.403 25.3158L154.64 12.2368C154.614 11.7105 154.561 9.89474 154.561 9.47369H154.351C154.351 9.92105 154.324 11.6842 154.272 12.2368L153.535 25.3158C153.535 25.3947 153.508 25.5789 153.482 25.6579L153.456 25.8158ZM169.582 39.3158C165.556 39.3158 163.503 37.0263 163.503 32.5789V23.5263H168.582V32.5789C168.582 33.4474 169.161 33.8684 169.529 33.8684H169.582C170.082 33.8684 170.398 33.6053 170.398 33.2105V24.2895C170.398 23.5789 169.872 22.5263 168.161 21.8421C165.951 20.9737 163.582 18.8421 163.582 15.2105V5.94737C163.582 2.10526 165.819 0.473686 169.529 0.473686H169.608C172.424 0.473686 175.74 1.57895 175.74 6.6579V16.1316H170.687V7.10527C170.687 6.55263 170.477 5.92106 169.766 5.92106H169.714C169.293 5.92106 168.977 6.18421 168.977 6.55263V15.4737C168.977 16.2105 169.582 17.1316 171.003 17.7368C173.029 18.6842 175.766 20.7632 175.793 24.4211V33.6842C175.793 37.3684 173.529 39.3158 169.661 39.3158H169.582ZM181.431 39V6.28947H178.221V0.868423H189.747V6.28947H186.536V39H181.431ZM196.538 39V0.868423H202.09L203.959 17.1579C204.064 17.7368 204.38 20.5526 204.538 22.2895L204.775 22.2632C204.696 20.5263 204.564 17.7632 204.564 17.1579L204.169 0.868423H208.959V39H203.354L201.406 21.8684C201.327 21.2895 201.064 19.1316 200.906 17.5526L200.696 17.5789C200.801 19.2368 200.959 21.9211 200.959 22.5526L201.327 39H196.538ZM210.578 39L214.342 0.868423H221.315L225.078 39H219.92L219.184 30.8684H216.499L215.684 39H210.578ZM216.815 25.8158L216.868 25.8684L216.973 25.8421C217.105 25.8158 217.131 25.8158 217.263 25.8158H218.394C218.499 25.8158 218.578 25.8158 218.684 25.8421L218.789 25.8684L218.868 25.8158L218.815 25.6579C218.789 25.5789 218.789 25.3947 218.763 25.3158L217.999 12.2368C217.973 11.7105 217.92 9.89474 217.92 9.47369H217.71C217.71 9.92105 217.684 11.6842 217.631 12.2368L216.894 25.3158C216.894 25.3947 216.868 25.5789 216.842 25.6579L216.815 25.8158ZM227.126 39V0.868423H233.626L234.573 12.9737C234.652 13.8421 234.836 18.7105 234.836 19.3421H235.047C235.047 18.7105 235.284 13.8421 235.363 12.9737L236.31 0.868423H242.81V39H238.02L238.205 23.1316C238.231 22.2368 238.336 19.3947 238.415 18.6842L238.178 18.6579C238.152 19.1316 237.941 21.6053 237.863 22.2368L236.731 34.1316H233.205L232.073 21.8947C231.994 21.3684 231.836 19.0526 231.81 18.6579L231.573 18.6842C231.652 19.4474 231.731 22.5263 231.731 23.2895L231.915 39H227.126ZM245.618 39V0.868423H255.249V6.28947H250.67V17.3684H255.249V22.4737H250.67V33.5789H255.249V39H245.618Z" fill="black"/>
</svg>
