<svg width="44" height="35" viewBox="0 0 44 35" fill="none" xmlns="http://www.w3.org/2000/svg">
<path d="M33.22 22C31.79 22 30.5708 21.4958 29.5625 20.4875C28.5542 19.4792 28.05 18.26 28.05 16.83C28.05 15.4 28.5542 14.1808 29.5625 13.1725C30.5708 12.1642 31.79 11.66 33.22 11.66C34.65 11.66 35.8692 12.1642 36.8775 13.1725C37.8858 14.1808 38.39 15.4 38.39 16.83C38.39 18.26 37.8858 19.4792 36.8775 20.4875C35.8692 21.4958 34.65 22 33.22 22ZM22.44 34.155V31.35C22.44 30.3967 22.6417 29.5808 23.045 28.9025C23.4483 28.2242 24.0167 27.7017 24.75 27.335C26.1067 26.6383 27.4817 26.125 28.875 25.795C30.2683 25.465 31.7167 25.3 33.22 25.3C34.7233 25.3 36.1717 25.4558 37.565 25.7675C38.9583 26.0792 40.3333 26.6017 41.69 27.335C42.4233 27.665 42.9917 28.1783 43.395 28.875C43.7983 29.5717 44 30.3967 44 31.35V34.155H22.44ZM17.6 16.5C15.18 16.5 13.2 15.73 11.66 14.19C10.12 12.65 9.35 10.67 9.35 8.25C9.35 5.83 10.12 3.85 11.66 2.31C13.2 0.77 15.18 0 17.6 0C20.02 0 22 0.77 23.54 2.31C25.08 3.85 25.85 5.83 25.85 8.25C25.85 10.67 25.08 12.65 23.54 14.19C22 15.73 20.02 16.5 17.6 16.5ZM0 34.155V28.985C0 27.7383 0.311667 26.5925 0.935 25.5475C1.55833 24.5025 2.49333 23.705 3.74 23.155C6.19667 22.055 8.5525 21.23 10.8075 20.68C13.0625 20.13 15.3267 19.855 17.6 19.855C18.5167 19.855 19.3967 19.8917 20.24 19.965C21.0833 20.0383 21.7617 20.13 22.275 20.24V22.385C21.9817 22.5317 21.7342 22.6692 21.5325 22.7975C21.3308 22.9258 21.12 23.1 20.9 23.32C20.1667 24.1267 19.69 24.9242 19.47 25.7125C19.25 26.5008 19.14 28.215 19.14 30.855V34.155H0Z" fill="black"/>
</svg>
