<svg width="235" height="40" viewBox="0 0 235 40" fill="none" xmlns="http://www.w3.org/2000/svg">
<path d="M0.364515 39L4.12767 0.868423H11.1014L14.8645 39H9.70662L8.96978 30.8684H6.28557L5.46978 39H0.364515ZM6.60136 25.8158L6.65399 25.8684L6.75925 25.8421C6.89083 25.8158 6.91715 25.8158 7.04873 25.8158H8.1803C8.28557 25.8158 8.36451 25.8158 8.46978 25.8421L8.57504 25.8684L8.65399 25.8158L8.60136 25.6579C8.57504 25.5789 8.57504 25.3947 8.54873 25.3158L7.78557 12.2368C7.75925 11.7105 7.70662 9.89474 7.70662 9.47369H7.49609C7.49609 9.92105 7.46978 11.6842 7.41715 12.2368L6.6803 25.3158C6.6803 25.3947 6.65399 25.5789 6.62767 25.6579L6.60136 25.8158ZM16.9118 39V0.868423H22.9644C28.8592 0.868423 28.8855 5.71053 28.8855 8.28948V31.5789C28.8855 34.1579 28.8592 39 22.9907 39H16.9118ZM21.9644 33.5789H22.8329C23.7013 33.5789 23.8329 33.0263 23.8329 31.1842V8.76316C23.8329 6.92105 23.7013 6.28947 22.8065 6.28947H21.9644V33.5789ZM31.4489 39V0.868423H37.5015C43.3963 0.868423 43.4226 5.71053 43.4226 8.28948V31.5789C43.4226 34.1579 43.3963 39 37.5279 39H31.4489ZM36.5015 33.5789H37.37C38.2384 33.5789 38.37 33.0263 38.37 31.1842V8.76316C38.37 6.92105 38.2384 6.28947 37.3436 6.28947H36.5015V33.5789ZM50.611 39V0.842108H56.8479C60.6373 0.842108 62.8479 3.1579 62.8479 7.10527V17.6842C62.8479 21.7105 60.7163 23.9474 56.8742 23.9474H55.6637V39H50.611ZM55.6637 18.8158H56.611C57.3215 18.8158 57.7163 18.3684 57.7163 17.5526V7.57895C57.7163 7.21053 57.5058 6.28947 56.5584 6.28947H55.6637V18.8158ZM65.2946 39V0.842108H71.3736C74.2157 0.842108 77.6104 1.86842 77.6104 6.60527V17.0526C77.6104 18.6053 76.3472 21.0526 74.7683 21.0526V21.2632C76.0841 21.2632 77.1893 22.8421 77.1893 24.8421C77.1893 26.2105 77.2683 37.8684 77.3209 39H72.0315V24.6316C72.0315 24.6053 71.9525 23.3421 71.0841 23.3421H70.3472V39H65.2946ZM70.3472 18.3947H71.3209C72.242 18.3947 72.3209 17.7368 72.3209 17.5V7.21053C72.3209 7 72.2683 6.26316 71.2946 6.26316L70.3472 6.28947V18.3947ZM85.6586 39.3158C79.7639 39.3158 79.7639 34.4737 79.7639 31.8947V7.92105C79.7639 5.34211 79.7902 0.526316 85.6586 0.473686H85.9481C91.8165 0.526316 91.8428 5.34211 91.8428 7.92105V31.8947C91.8428 34.4737 91.8428 39.3158 85.9481 39.3158H85.6586ZM84.7902 31.5C84.7902 33.3421 84.9218 33.8947 85.7639 33.8947H85.8428C86.6586 33.8684 86.8165 33.3158 86.8165 31.5V8.34211C86.8165 6.5 86.6849 5.94737 85.8428 5.92106H85.7639C84.9218 5.94737 84.7902 6.52632 84.7902 8.34211V31.5ZM94.4177 39V0.868423H104.102V6.28947H99.4703V17.6579H103.681V22.6053H99.4703V39H94.4177ZM106.66 39V0.868423H111.897V39H106.66ZM114.703 39V0.868423H120.045V33.5789H124.255V39H114.703ZM126.945 39V0.868423H136.577V6.28947H131.998V17.3684H136.577V22.4737H131.998V33.5789H136.577V39H126.945ZM144.545 39V0.842108H150.781C154.571 0.842108 156.781 3.1579 156.781 7.10527V17.6842C156.781 21.7105 154.65 23.9474 150.808 23.9474H149.597V39H144.545ZM149.597 18.8158H150.545C151.255 18.8158 151.65 18.3684 151.65 17.5526V7.57895C151.65 7.21053 151.439 6.28947 150.492 6.28947H149.597V18.8158ZM159.228 39V0.868423H164.465V39H159.228ZM172.745 39.3158C167.008 39.3158 167.008 34.2895 167.008 31.8947V7.92105C167.008 5.52632 167.034 0.500001 172.745 0.500001H173.008C178.876 0.500001 178.903 5.34211 178.903 7.92105V18.1579H173.903L173.929 8.18421C173.929 6.47369 173.824 5.92106 173.061 5.92106H172.824C172.192 5.92106 172.087 6.52632 172.087 8.23684V31.6053C172.087 33.3158 172.166 33.8947 172.824 33.8947H173.087C173.824 33.8947 173.929 33.3684 173.929 31.6579V21.4474H178.903V31.8947C178.903 34.4737 178.903 39.3158 173.008 39.3158H172.745ZM184.545 39V6.28947H181.335V0.868423H192.861V6.28947H189.651V39H184.545ZM201.301 39.3421C195.564 39.3158 195.564 34.3158 195.564 31.9211V0.868423H200.643V31.2895C200.643 33.2105 200.775 33.8947 201.512 33.9211H201.564C202.301 33.8947 202.433 33.2105 202.433 31.2895V0.868423H207.512V31.9211C207.512 34.3158 207.485 39.3158 201.775 39.3421H201.301ZM210.345 39V0.842108H216.424C219.266 0.842108 222.661 1.86842 222.661 6.60527V17.0526C222.661 18.6053 221.398 21.0526 219.819 21.0526V21.2632C221.135 21.2632 222.24 22.8421 222.24 24.8421C222.24 26.2105 222.319 37.8684 222.372 39H217.082V24.6316C217.082 24.6053 217.003 23.3421 216.135 23.3421H215.398V39H210.345ZM215.398 18.3947H216.372C217.293 18.3947 217.372 17.7368 217.372 17.5V7.21053C217.372 7 217.319 6.26316 216.345 6.26316L215.398 6.28947V18.3947ZM225.224 39V0.868423H234.856V6.28947H230.277V17.3684H234.856V22.4737H230.277V33.5789H234.856V39H225.224Z" fill="black"/>
</svg>
