<svg width="300" height="40" viewBox="0 0 300 40" fill="none" xmlns="http://www.w3.org/2000/svg">
<path d="M0.0397306 39V0.868423H9.67131V6.28947H5.09236V17.3684H9.67131V22.4737H5.09236V33.5789H9.67131V39H0.0397306ZM12.4772 39V0.868423H18.0299L19.8983 17.1579C20.0035 17.7368 20.3193 20.5526 20.4772 22.2895L20.7141 22.2632C20.6351 20.5263 20.5035 17.7632 20.5035 17.1579L20.1088 0.868423H24.8983V39H19.293L17.3457 21.8684C17.2667 21.2895 17.0035 19.1316 16.8457 17.5526L16.6351 17.5789C16.7404 19.2368 16.8983 21.9211 16.8983 22.5526L17.2667 39H12.4772ZM30.6304 39V6.28947H27.4199V0.868423H38.9462V6.28947H35.7357V39H30.6304ZM41.5026 39V0.868423H51.1342V6.28947H46.5553V17.3684H51.1342V22.4737H46.5553V33.5789H51.1342V39H41.5026ZM53.9401 39V0.842108H60.0191C62.8612 0.842108 66.2559 1.86842 66.2559 6.60527V17.0526C66.2559 18.6053 64.9928 21.0526 63.4138 21.0526V21.2632C64.7296 21.2632 65.8349 22.8421 65.8349 24.8421C65.8349 26.2105 65.9138 37.8684 65.9664 39H60.677V24.6316C60.677 24.6053 60.598 23.3421 59.7296 23.3421H58.9928V39H53.9401ZM58.9928 18.3947H59.9664C60.8875 18.3947 60.9664 17.7368 60.9664 17.5V7.21053C60.9664 7 60.9138 6.26316 59.9401 6.26316L58.9928 6.28947V18.3947ZM75.4342 39V24.7105L71.0921 0.842108H76.5131L77.7236 12.3158C77.7763 12.7632 77.8552 14.0526 77.8552 14.5263H78.0657C78.0657 14.0526 78.171 12.7632 78.2499 12.3158L79.5921 0.842108H84.9605L80.6184 24.7368V39H75.4342ZM91.5619 39.3158C85.6672 39.3158 85.6672 34.4737 85.6672 31.8947V7.92105C85.6672 5.34211 85.6935 0.526316 91.5619 0.473686H91.8514C97.7198 0.526316 97.7461 5.34211 97.7461 7.92105V31.8947C97.7461 34.4737 97.7461 39.3158 91.8514 39.3158H91.5619ZM90.6935 31.5C90.6935 33.3421 90.8251 33.8947 91.6672 33.8947H91.7461C92.5619 33.8684 92.7198 33.3158 92.7198 31.5V8.34211C92.7198 6.5 92.5883 5.94737 91.7461 5.92106H91.6672C90.8251 5.94737 90.6935 6.52632 90.6935 8.34211V31.5ZM106.058 39.3421C100.321 39.3158 100.321 34.3158 100.321 31.9211V0.868423H105.4V31.2895C105.4 33.2105 105.532 33.8947 106.268 33.9211H106.321C107.058 33.8947 107.189 33.2105 107.189 31.2895V0.868423H112.268V31.9211C112.268 34.3158 112.242 39.3158 106.532 39.3421H106.058ZM115.102 39V0.842108H121.181C124.023 0.842108 127.418 1.86842 127.418 6.60527V17.0526C127.418 18.6053 126.155 21.0526 124.576 21.0526V21.2632C125.892 21.2632 126.997 22.8421 126.997 24.8421C126.997 26.2105 127.076 37.8684 127.129 39H121.839V24.6316C121.839 24.6053 121.76 23.3421 120.892 23.3421H120.155V39H115.102ZM120.155 18.3947H121.129C122.05 18.3947 122.129 17.7368 122.129 17.5V7.21053C122.129 7 122.076 6.26316 121.102 6.26316L120.155 6.28947V18.3947ZM135.143 39V0.842108H141.38C145.17 0.842108 147.38 3.1579 147.38 7.10527V17.6842C147.38 21.7105 145.249 23.9474 141.406 23.9474H140.196V39H135.143ZM140.196 18.8158H141.143C141.854 18.8158 142.249 18.3684 142.249 17.5526V7.57895C142.249 7.21053 142.038 6.28947 141.091 6.28947H140.196V18.8158ZM149.827 39V0.868423H155.064V17.5H156.932V0.868423H162.195V39H156.932V22.4211H155.064V39H149.827ZM170.63 39.3158C164.736 39.3158 164.736 34.4737 164.736 31.8947V7.92105C164.736 5.34211 164.762 0.526316 170.63 0.473686H170.92C176.788 0.526316 176.815 5.34211 176.815 7.92105V31.8947C176.815 34.4737 176.815 39.3158 170.92 39.3158H170.63ZM169.762 31.5C169.762 33.3421 169.893 33.8947 170.736 33.8947H170.815C171.63 33.8684 171.788 33.3158 171.788 31.5V8.34211C171.788 6.5 171.657 5.94737 170.815 5.92106H170.736C169.893 5.94737 169.762 6.52632 169.762 8.34211V31.5ZM179.389 39V0.868423H184.942L186.81 17.1579C186.916 17.7368 187.231 20.5526 187.389 22.2895L187.626 22.2632C187.547 20.5263 187.416 17.7632 187.416 17.1579L187.021 0.868423H191.81V39H186.205L184.258 21.8684C184.179 21.2895 183.916 19.1316 183.758 17.5526L183.547 17.5789C183.652 19.2368 183.81 21.9211 183.81 22.5526L184.179 39H179.389ZM194.61 39V0.868423H204.242V6.28947H199.663V17.3684H204.242V22.4737H199.663V33.5789H204.242V39H194.61ZM211.673 39V0.868423H217.225L219.094 17.1579C219.199 17.7368 219.515 20.5526 219.673 22.2895L219.909 22.2632C219.83 20.5263 219.699 17.7632 219.699 17.1579L219.304 0.868423H224.094V39H218.488L216.541 21.8684C216.462 21.2895 216.199 19.1316 216.041 17.5526L215.83 17.5789C215.936 19.2368 216.094 21.9211 216.094 22.5526L216.462 39H211.673ZM232.63 39.3421C226.893 39.3158 226.893 34.3158 226.893 31.9211V0.868423H231.972V31.2895C231.972 33.2105 232.104 33.8947 232.841 33.9211H232.893C233.63 33.8947 233.762 33.2105 233.762 31.2895V0.868423H238.841V31.9211C238.841 34.3158 238.814 39.3158 233.104 39.3421H232.63ZM241.674 39V0.868423H248.174L249.122 12.9737C249.201 13.8421 249.385 18.7105 249.385 19.3421H249.596C249.596 18.7105 249.832 13.8421 249.911 12.9737L250.859 0.868423H257.359V39H252.569L252.753 23.1316C252.78 22.2368 252.885 19.3947 252.964 18.6842L252.727 18.6579C252.701 19.1316 252.49 21.6053 252.411 22.2368L251.28 34.1316H247.753L246.622 21.8947C246.543 21.3684 246.385 19.0526 246.359 18.6579L246.122 18.6842C246.201 19.4474 246.28 22.5263 246.28 23.2895L246.464 39H241.674ZM260.167 39V0.842108H265.798C269.825 0.842108 272.035 2.6579 272.035 6.18421V16.2105C272.035 17.9737 270.772 19.5789 269.535 19.5789V19.7895C271.377 19.7895 272.193 21.8158 272.193 23.7105V33.6842C272.193 37.2105 269.693 39 265.825 39H260.167ZM265.114 33.6316H265.825C266.588 33.6316 266.877 33.1053 266.851 32.8421V22.8421C266.851 22.7105 266.772 21.9474 265.772 21.9474H265.114V33.6316ZM265.114 17.7632H265.825C266.43 17.7632 266.851 17.3421 266.851 17.0263V7C266.851 6.60527 266.535 6.1579 265.798 6.1579H265.114V17.7632ZM274.46 39V0.868423H284.091V6.28947H279.512V17.3684H284.091V22.4737H279.512V33.5789H284.091V39H274.46ZM286.897 39V0.842108H292.976C295.818 0.842108 299.213 1.86842 299.213 6.60527V17.0526C299.213 18.6053 297.95 21.0526 296.371 21.0526V21.2632C297.687 21.2632 298.792 22.8421 298.792 24.8421C298.792 26.2105 298.871 37.8684 298.923 39H293.634V24.6316C293.634 24.6053 293.555 23.3421 292.687 23.3421H291.95V39H286.897ZM291.95 18.3947H292.923C293.845 18.3947 293.923 17.7368 293.923 17.5V7.21053C293.923 7 293.871 6.26316 292.897 6.26316L291.95 6.28947V18.3947Z" fill="black"/>
</svg>
