<svg width="14" height="19" viewBox="0 0 14 19" fill="none" xmlns="http://www.w3.org/2000/svg">
<path id="Vector" d="M0 18.7105V6.41712H2.65689V4.85843C2.65689 3.6508 3.07969 2.62249 3.92528 1.77349C4.77086 0.924498 5.79577 0.5 7 0.5C8.20423 0.5 9.22914 0.924498 10.0747 1.77349C10.9203 2.62249 11.3431 3.6508 11.3431 4.85843V6.41712H14V18.7105H0ZM7 14.2704C7.46932 14.2704 7.8711 14.1033 8.20531 13.7691C8.53953 13.4349 8.70664 13.0331 8.70664 12.5638C8.70664 12.0945 8.53953 11.6927 8.20531 11.3585C7.8711 11.0243 7.46932 10.8572 7 10.8572C6.53067 10.8572 6.1289 11.0243 5.79469 11.3585C5.46047 11.6927 5.29336 12.0945 5.29336 12.5638C5.29336 13.0331 5.46047 13.4349 5.79469 13.7691C6.1289 14.1033 6.53067 14.2704 7 14.2704ZM4.59819 6.41712H9.40181V4.85843C9.40181 4.18701 9.16908 3.6163 8.70363 3.14631C8.23816 2.67632 7.67028 2.44132 7 2.44132C6.32972 2.44132 5.76184 2.67632 5.29637 3.14631C4.83092 3.6163 4.59819 4.18701 4.59819 4.85843V6.41712Z" fill="black"/>
</svg>
