<svg width="252" height="40" viewBox="0 0 252 40" fill="none" xmlns="http://www.w3.org/2000/svg">
<path d="M2.40394 39L0.0881476 0.868423H5.24604L5.95657 18.8947L6.03552 24.0526H6.24604C6.24604 23.3421 6.43025 18.4737 6.45657 17.8947L7.48288 0.868423H11.9829L13.0355 17.8947C13.0618 18.3947 13.1934 23.5789 13.1934 24.0526H13.4039C13.4039 23.8684 13.4303 24.1316 13.5092 18.8947C13.5355 18.1579 13.9829 3.42105 14.246 0.868423H19.4039L17.0618 39H10.9303L10.0092 23.6053C9.98288 23 9.82499 20.8158 9.82499 20.1579H9.61446C9.61446 20.7895 9.53552 22.9737 9.45657 23.6053L8.53552 39H2.40394ZM21.2741 39V0.868423H30.9057V6.28947H26.3267V17.3684H30.9057V22.4737H26.3267V33.5789H30.9057V39H21.2741ZM32.5315 39L36.2947 0.868423H43.2683L47.0315 39H41.8736L41.1368 30.8684H38.4526L37.6368 39H32.5315ZM38.7683 25.8158L38.821 25.8684L38.9262 25.8421C39.0578 25.8158 39.0841 25.8158 39.2157 25.8158H40.3473C40.4526 25.8158 40.5315 25.8158 40.6368 25.8421L40.742 25.8684L40.821 25.8158L40.7683 25.6579C40.742 25.5789 40.742 25.3947 40.7157 25.3158L39.9526 12.2368C39.9262 11.7105 39.8736 9.89474 39.8736 9.47369H39.6631C39.6631 9.92105 39.6368 11.6842 39.5841 12.2368L38.8473 25.3158C38.8473 25.3947 38.821 25.5789 38.7947 25.6579L38.7683 25.8158ZM49.0788 39V0.868423H54.4209V33.5789H58.6314V39H49.0788ZM61.6656 39V6.28947H58.455V0.868423H69.9813V6.28947H66.7708V39H61.6656ZM72.5378 39V0.868423H77.7746V17.5H79.643V0.868423H84.9062V39H79.643V22.4211H77.7746V39H72.5378ZM98.0339 39V0.868423H103.376V33.5789H107.587V39H98.0339ZM110.276 39V0.868423H119.908V6.28947H115.329V17.3684H119.908V22.4737H115.329V33.5789H119.908V39H110.276ZM121.533 39L125.297 0.868423H132.27L136.033 39H130.876L130.139 30.8684H127.455L126.639 39H121.533ZM127.77 25.8158L127.823 25.8684L127.928 25.8421C128.06 25.8158 128.086 25.8158 128.218 25.8158H129.349C129.455 25.8158 129.533 25.8158 129.639 25.8421L129.744 25.8684L129.823 25.8158L129.77 25.6579C129.744 25.5789 129.744 25.3947 129.718 25.3158L128.955 12.2368C128.928 11.7105 128.876 9.89474 128.876 9.47369H128.665C128.665 9.92105 128.639 11.6842 128.586 12.2368L127.849 25.3158C127.849 25.3947 127.823 25.5789 127.797 25.6579L127.77 25.8158ZM138.081 39V0.868423H144.133C150.028 0.868423 150.054 5.71053 150.054 8.28948V31.5789C150.054 34.1579 150.028 39 144.16 39H138.081ZM143.133 33.5789H144.002C144.87 33.5789 145.002 33.0263 145.002 31.1842V8.76316C145.002 6.92105 144.87 6.28947 143.975 6.28947H143.133V33.5789ZM152.618 39V0.868423H162.249V6.28947H157.67V17.3684H162.249V22.4737H157.67V33.5789H162.249V39H152.618ZM165.055 39V0.842108H171.134C173.976 0.842108 177.371 1.86842 177.371 6.60527V17.0526C177.371 18.6053 176.108 21.0526 174.529 21.0526V21.2632C175.845 21.2632 176.95 22.8421 176.95 24.8421C176.95 26.2105 177.029 37.8684 177.082 39H171.792V24.6316C171.792 24.6053 171.713 23.3421 170.845 23.3421H170.108V39H165.055ZM170.108 18.3947H171.082C172.003 18.3947 172.082 17.7368 172.082 17.5V7.21053C172.082 7 172.029 6.26316 171.055 6.26316L170.108 6.28947V18.3947ZM179.934 39V0.842108H185.566C189.592 0.842108 191.803 2.6579 191.803 6.18421V16.2105C191.803 17.9737 190.54 19.5789 189.303 19.5789V19.7895C191.145 19.7895 191.961 21.8158 191.961 23.7105V33.6842C191.961 37.2105 189.461 39 185.592 39H179.934ZM184.882 33.6316H185.592C186.355 33.6316 186.645 33.1053 186.618 32.8421V22.8421C186.618 22.7105 186.54 21.9474 185.54 21.9474H184.882V33.6316ZM184.882 17.7632H185.592C186.197 17.7632 186.618 17.3421 186.618 17.0263V7C186.618 6.60527 186.303 6.1579 185.566 6.1579H184.882V17.7632ZM200.005 39.3158C194.111 39.3158 194.111 34.4737 194.111 31.8947V7.92105C194.111 5.34211 194.137 0.526316 200.005 0.473686H200.295C206.163 0.526316 206.19 5.34211 206.19 7.92105V31.8947C206.19 34.4737 206.19 39.3158 200.295 39.3158H200.005ZM199.137 31.5C199.137 33.3421 199.268 33.8947 200.111 33.8947H200.19C201.005 33.8684 201.163 33.3158 201.163 31.5V8.34211C201.163 6.5 201.032 5.94737 200.19 5.92106H200.111C199.268 5.94737 199.137 6.52632 199.137 8.34211V31.5ZM207.975 39L211.738 0.868423H218.712L222.475 39H217.317L216.58 30.8684H213.896L213.08 39H207.975ZM214.212 25.8158L214.264 25.8684L214.37 25.8421C214.501 25.8158 214.527 25.8158 214.659 25.8158H215.791C215.896 25.8158 215.975 25.8158 216.08 25.8421L216.185 25.8684L216.264 25.8158L216.212 25.6579C216.185 25.5789 216.185 25.3947 216.159 25.3158L215.396 12.2368C215.37 11.7105 215.317 9.89474 215.317 9.47369H215.106C215.106 9.92105 215.08 11.6842 215.027 12.2368L214.291 25.3158C214.291 25.3947 214.264 25.5789 214.238 25.6579L214.212 25.8158ZM224.522 39V0.842108H230.601C233.443 0.842108 236.838 1.86842 236.838 6.60527V17.0526C236.838 18.6053 235.575 21.0526 233.996 21.0526V21.2632C235.312 21.2632 236.417 22.8421 236.417 24.8421C236.417 26.2105 236.496 37.8684 236.548 39H231.259V24.6316C231.259 24.6053 231.18 23.3421 230.312 23.3421H229.575V39H224.522ZM229.575 18.3947H230.548C231.47 18.3947 231.548 17.7368 231.548 17.5V7.21053C231.548 7 231.496 6.26316 230.522 6.26316L229.575 6.28947V18.3947ZM239.401 39V0.868423H245.454C251.348 0.868423 251.375 5.71053 251.375 8.28948V31.5789C251.375 34.1579 251.348 39 245.48 39H239.401ZM244.454 33.5789H245.322C246.191 33.5789 246.322 33.0263 246.322 31.1842V8.76316C246.322 6.92105 246.191 6.28947 245.296 6.28947H244.454V33.5789Z" fill="black"/>
</svg>
