<svg width="176" height="40" viewBox="0 0 176 40" fill="none" xmlns="http://www.w3.org/2000/svg">
<path d="M0.0875822 39V0.868423H5.42969V33.5789H9.64021V39H0.0875822ZM12.3298 39V0.868423H17.5666V39H12.3298ZM20.3727 39V0.868423H25.9254L27.7938 17.1579C27.8991 17.7368 28.2148 20.5526 28.3727 22.2895L28.6096 22.2632C28.5306 20.5263 28.3991 17.7632 28.3991 17.1579L28.0043 0.868423H32.7938V39H27.1885L25.2412 21.8684C25.1622 21.2895 24.8991 19.1316 24.7412 17.5526L24.5306 17.5789C24.6359 19.2368 24.7938 21.9211 24.7938 22.5526L25.1622 39H20.3727ZM35.5934 39V0.868423H40.6461V13.1579C40.6461 13.7368 40.5408 15.0789 40.4619 15.6579L40.6987 15.6842C40.7513 15.2632 40.9092 14.1316 40.9882 13.7368L42.7777 0.868423H48.5145L44.8303 19.7632V19.7895L48.725 39H42.9092L41.0408 26.1316C40.9092 25.5263 40.725 24.5789 40.6987 24.0789H40.4619C40.5145 24.6316 40.6461 25.7368 40.6461 26.4737V39H35.5934ZM57.4781 39V24.7105L53.136 0.842108H58.5571L59.7676 12.3158C59.8202 12.7632 59.8992 14.0526 59.8992 14.5263H60.1097C60.1097 14.0526 60.2149 12.7632 60.2939 12.3158L61.636 0.842108H67.0044L62.6623 24.7368V39H57.4781ZM73.6059 39.3158C67.7111 39.3158 67.7111 34.4737 67.7111 31.8947V7.92105C67.7111 5.34211 67.7375 0.526316 73.6059 0.473686H73.8954C79.7638 0.526316 79.7901 5.34211 79.7901 7.92105V31.8947C79.7901 34.4737 79.7901 39.3158 73.8954 39.3158H73.6059ZM72.7375 31.5C72.7375 33.3421 72.869 33.8947 73.7111 33.8947H73.7901C74.6059 33.8684 74.7638 33.3158 74.7638 31.5V8.34211C74.7638 6.5 74.6322 5.94737 73.7901 5.92106H73.7111C72.869 5.94737 72.7375 6.52632 72.7375 8.34211V31.5ZM88.1018 39.3421C82.3649 39.3158 82.3649 34.3158 82.3649 31.9211V0.868423H87.4439V31.2895C87.4439 33.2105 87.5755 33.8947 88.3123 33.9211H88.3649C89.1018 33.8947 89.2333 33.2105 89.2333 31.2895V0.868423H94.3123V31.9211C94.3123 34.3158 94.286 39.3158 88.5755 39.3421H88.1018ZM97.1462 39V0.842108H103.225C106.067 0.842108 109.462 1.86842 109.462 6.60527V17.0526C109.462 18.6053 108.199 21.0526 106.62 21.0526V21.2632C107.936 21.2632 109.041 22.8421 109.041 24.8421C109.041 26.2105 109.12 37.8684 109.172 39H103.883V24.6316C103.883 24.6053 103.804 23.3421 102.936 23.3421H102.199V39H97.1462ZM102.199 18.3947H103.172C104.094 18.3947 104.172 17.7368 104.172 17.5V7.21053C104.172 7 104.12 6.26316 103.146 6.26316L102.199 6.28947V18.3947ZM117.187 39V0.842108H122.819C126.845 0.842108 129.056 2.6579 129.056 6.18421V16.2105C129.056 17.9737 127.792 19.5789 126.556 19.5789V19.7895C128.398 19.7895 129.214 21.8158 129.214 23.7105V33.6842C129.214 37.2105 126.714 39 122.845 39H117.187ZM122.135 33.6316H122.845C123.608 33.6316 123.898 33.1053 123.871 32.8421V22.8421C123.871 22.7105 123.792 21.9474 122.792 21.9474H122.135V33.6316ZM122.135 17.7632H122.845C123.45 17.7632 123.871 17.3421 123.871 17.0263V7C123.871 6.60527 123.556 6.1579 122.819 6.1579H122.135V17.7632ZM130.691 39L134.454 0.868423H141.428L145.191 39H140.033L139.296 30.8684H136.612L135.796 39H130.691ZM136.928 25.8158L136.98 25.8684L137.085 25.8421C137.217 25.8158 137.243 25.8158 137.375 25.8158H138.506C138.612 25.8158 138.691 25.8158 138.796 25.8421L138.901 25.8684L138.98 25.8158L138.928 25.6579C138.901 25.5789 138.901 25.3947 138.875 25.3158L138.112 12.2368C138.085 11.7105 138.033 9.89474 138.033 9.47369H137.822C137.822 9.92105 137.796 11.6842 137.743 12.2368L137.006 25.3158C137.006 25.3947 136.98 25.5789 136.954 25.6579L136.928 25.8158ZM147.238 39V0.868423H152.791L154.659 17.1579C154.764 17.7368 155.08 20.5526 155.238 22.2895L155.475 22.2632C155.396 20.5263 155.264 17.7632 155.264 17.1579L154.87 0.868423H159.659V39H154.054L152.106 21.8684C152.027 21.2895 151.764 19.1316 151.606 17.5526L151.396 17.5789C151.501 19.2368 151.659 21.9211 151.659 22.5526L152.027 39H147.238ZM162.459 39V0.868423H167.511V13.1579C167.511 13.7368 167.406 15.0789 167.327 15.6579L167.564 15.6842C167.617 15.2632 167.774 14.1316 167.853 13.7368L169.643 0.868423H175.38L171.696 19.7632V19.7895L175.59 39H169.774L167.906 26.1316C167.774 25.5263 167.59 24.5789 167.564 24.0789H167.327C167.38 24.6316 167.511 25.7368 167.511 26.4737V39H162.459Z" fill="black"/>
</svg>
