<svg width="200" height="40" viewBox="0 0 200 40" fill="none" xmlns="http://www.w3.org/2000/svg">
<path d="M0.729184 39V0.868423H10.3608V6.28947H5.78182V17.3684H10.3608V22.4737H5.78182V33.5789H10.3608V39H0.729184ZM13.1667 39V0.868423H18.7193L20.5877 17.1579C20.693 17.7368 21.0088 20.5526 21.1667 22.2895L21.4035 22.2632C21.3246 20.5263 21.193 17.7632 21.193 17.1579L20.7983 0.868423H25.5877V39H19.9825L18.0351 21.8684C17.9562 21.2895 17.693 19.1316 17.5351 17.5526L17.3246 17.5789C17.4298 19.2368 17.5877 21.9211 17.5877 22.5526L17.9562 39H13.1667ZM27.2073 39L30.9704 0.868423H37.9441L41.7073 39H36.5494L35.8126 30.8684H33.1283L32.3126 39H27.2073ZM33.4441 25.8158L33.4968 25.8684L33.602 25.8421C33.7336 25.8158 33.7599 25.8158 33.8915 25.8158H35.0231C35.1283 25.8158 35.2073 25.8158 35.3126 25.8421L35.4178 25.8684L35.4968 25.8158L35.4441 25.6579C35.4178 25.5789 35.4178 25.3947 35.3915 25.3158L34.6283 12.2368C34.602 11.7105 34.5494 9.89474 34.5494 9.47369H34.3389C34.3389 9.92105 34.3126 11.6842 34.2599 12.2368L33.5231 25.3158C33.5231 25.3947 33.4968 25.5789 33.4704 25.6579L33.4441 25.8158ZM43.7546 39V0.842108H49.3862C53.4125 0.842108 55.623 2.6579 55.623 6.18421V16.2105C55.623 17.9737 54.3598 19.5789 53.123 19.5789V19.7895C54.9651 19.7895 55.7809 21.8158 55.7809 23.7105V33.6842C55.7809 37.2105 53.2809 39 49.4125 39H43.7546ZM48.7019 33.6316H49.4125C50.1756 33.6316 50.4651 33.1053 50.4388 32.8421V22.8421C50.4388 22.7105 50.3598 21.9474 49.3598 21.9474H48.7019V33.6316ZM48.7019 17.7632H49.4125C50.0177 17.7632 50.4388 17.3421 50.4388 17.0263V7C50.4388 6.60527 50.123 6.1579 49.3862 6.1579H48.7019V17.7632ZM58.0475 39V0.868423H63.3896V33.5789H67.6002V39H58.0475ZM70.2897 39V0.868423H79.9213V6.28947H75.3424V17.3684H79.9213V22.4737H75.3424V33.5789H79.9213V39H70.2897ZM93.1189 39.3158C87.382 39.3158 87.382 34.2895 87.382 31.8947V7.92105C87.382 5.52632 87.4084 0.500001 93.1189 0.500001H93.382C99.2505 0.500001 99.2768 5.34211 99.2768 7.92105V18.1579H94.2768L94.3031 8.18421C94.3031 6.47369 94.1978 5.92106 93.4347 5.92106H93.1978C92.5663 5.92106 92.461 6.52632 92.461 8.23684V31.6053C92.461 33.3158 92.5399 33.8947 93.1978 33.8947H93.461C94.1978 33.8947 94.3031 33.3684 94.3031 31.6579V21.4474H99.2768V31.8947C99.2768 34.4737 99.2768 39.3158 93.382 39.3158H93.1189ZM107.619 39.3158C101.724 39.3158 101.724 34.4737 101.724 31.8947V7.92105C101.724 5.34211 101.75 0.526316 107.619 0.473686H107.908C113.776 0.526316 113.803 5.34211 113.803 7.92105V31.8947C113.803 34.4737 113.803 39.3158 107.908 39.3158H107.619ZM106.75 31.5C106.75 33.3421 106.882 33.8947 107.724 33.8947H107.803C108.619 33.8684 108.776 33.3158 108.776 31.5V8.34211C108.776 6.5 108.645 5.94737 107.803 5.92106H107.724C106.882 5.94737 106.75 6.52632 106.75 8.34211V31.5ZM116.378 39V0.868423H121.93L123.799 17.1579C123.904 17.7368 124.22 20.5526 124.378 22.2895L124.614 22.2632C124.536 20.5263 124.404 17.7632 124.404 17.1579L124.009 0.868423H128.799V39H123.193L121.246 21.8684C121.167 21.2895 120.904 19.1316 120.746 17.5526L120.536 17.5789C120.641 19.2368 120.799 21.9211 120.799 22.5526L121.167 39H116.378ZM134.531 39V6.28947H131.32V0.868423H142.847V6.28947H139.636V39H134.531ZM142.66 39L146.424 0.868423H153.397L157.16 39H152.003L151.266 30.8684H148.581L147.766 39H142.66ZM148.897 25.8158L148.95 25.8684L149.055 25.8421C149.187 25.8158 149.213 25.8158 149.345 25.8158H150.476C150.581 25.8158 150.66 25.8158 150.766 25.8421L150.871 25.8684L150.95 25.8158L150.897 25.6579C150.871 25.5789 150.871 25.3947 150.845 25.3158L150.081 12.2368C150.055 11.7105 150.003 9.89474 150.003 9.47369H149.792C149.792 9.92105 149.766 11.6842 149.713 12.2368L148.976 25.3158C148.976 25.3947 148.95 25.5789 148.924 25.6579L148.897 25.8158ZM164.681 39.3158C158.945 39.3158 158.945 34.2895 158.945 31.8947V7.92105C158.945 5.52632 158.971 0.500001 164.681 0.500001H164.945C170.813 0.500001 170.839 5.34211 170.839 7.92105V18.1579H165.839L165.866 8.18421C165.866 6.47369 165.76 5.92106 164.997 5.92106H164.76C164.129 5.92106 164.023 6.52632 164.023 8.23684V31.6053C164.023 33.3158 164.102 33.8947 164.76 33.8947H165.023C165.76 33.8947 165.866 33.3684 165.866 31.6579V21.4474H170.839V31.8947C170.839 34.4737 170.839 39.3158 164.945 39.3158H164.681ZM176.482 39V6.28947H173.271V0.868423H184.798V6.28947H181.587V39H176.482ZM193.316 39.3158C189.29 39.3158 187.238 37.0263 187.238 32.5789V23.5263H192.316V32.5789C192.316 33.4474 192.895 33.8684 193.264 33.8684H193.316C193.816 33.8684 194.132 33.6053 194.132 33.2105V24.2895C194.132 23.5789 193.606 22.5263 191.895 21.8421C189.685 20.9737 187.316 18.8421 187.316 15.2105V5.94737C187.316 2.10526 189.553 0.473686 193.264 0.473686H193.343C196.159 0.473686 199.474 1.57895 199.474 6.6579V16.1316H194.422V7.10527C194.422 6.55263 194.211 5.92106 193.501 5.92106H193.448C193.027 5.92106 192.711 6.18421 192.711 6.55263V15.4737C192.711 16.2105 193.316 17.1316 194.738 17.7368C196.764 18.6842 199.501 20.7632 199.527 24.4211V33.6842C199.527 37.3684 197.264 39.3158 193.395 39.3158H193.316Z" fill="black"/>
</svg>
