<svg width="242" height="90" viewBox="0 0 242 90" fill="none" xmlns="http://www.w3.org/2000/svg">
<path d="M6.66704 39.3158C2.64073 39.3158 0.588096 37.0263 0.588096 32.5789V23.5263H5.66704V32.5789C5.66704 33.4474 6.24599 33.8684 6.61441 33.8684H6.66704C7.16704 33.8684 7.48283 33.6053 7.48283 33.2105V24.2895C7.48283 23.5789 6.95652 22.5263 5.24599 21.8421C3.03546 20.9737 0.667044 18.8421 0.667044 15.2105V5.94737C0.667044 2.10526 2.90389 0.473686 6.61441 0.473686H6.69336C9.50915 0.473686 12.8249 1.57895 12.8249 6.6579V16.1316H7.77231V7.10527C7.77231 6.55263 7.56178 5.92106 6.85125 5.92106H6.79862C6.37757 5.92106 6.06178 6.18421 6.06178 6.55263V15.4737C6.06178 16.2105 6.66704 17.1316 8.0881 17.7368C10.1144 18.6842 12.8513 20.7632 12.8776 24.4211V33.6842C12.8776 37.3684 10.6144 39.3158 6.74599 39.3158H6.66704ZM15.4372 39V0.868423H25.0688V6.28947H20.4898V17.3684H25.0688V22.4737H20.4898V33.5789H25.0688V39H15.4372ZM27.8747 39V0.868423H37.5063V6.28947H32.9273V17.3684H37.5063V22.4737H32.9273V33.5789H37.5063V39H27.8747ZM45.4743 39V0.868423H50.7111V17.5H52.5796V0.868423H57.8427V39H52.5796V22.4211H50.7111V39H45.4743ZM66.2778 39.3158C60.383 39.3158 60.383 34.4737 60.383 31.8947V7.92105C60.383 5.34211 60.4093 0.526316 66.2778 0.473686H66.5672C72.4356 0.526316 72.462 5.34211 72.462 7.92105V31.8947C72.462 34.4737 72.462 39.3158 66.5672 39.3158H66.2778ZM65.4093 31.5C65.4093 33.3421 65.5409 33.8947 66.383 33.8947H66.462C67.2778 33.8684 67.4356 33.3158 67.4356 31.5V8.34211C67.4356 6.5 67.3041 5.94737 66.462 5.92106H66.383C65.5409 5.94737 65.4093 6.52632 65.4093 8.34211V31.5ZM76.319 39L74.0032 0.868423H79.1611L79.8716 18.8947L79.9506 24.0526H80.1611C80.1611 23.3421 80.3453 18.4737 80.3716 17.8947L81.3979 0.868423H85.8979L86.9506 17.8947C86.9769 18.3947 87.1084 23.5789 87.1084 24.0526H87.319C87.319 23.8684 87.3453 24.1316 87.4242 18.8947C87.4506 18.1579 87.8979 3.42105 88.1611 0.868423H93.319L90.9769 39H84.8453L83.9242 23.6053C83.8979 23 83.74 20.8158 83.74 20.1579H83.5295C83.5295 20.7895 83.4506 22.9737 83.3716 23.6053L82.4506 39H76.319ZM100.498 39V0.868423H106.998L107.945 12.9737C108.024 13.8421 108.208 18.7105 108.208 19.3421H108.419C108.419 18.7105 108.656 13.8421 108.735 12.9737L109.682 0.868423H116.182V39H111.392L111.577 23.1316C111.603 22.2368 111.708 19.3947 111.787 18.6842L111.55 18.6579C111.524 19.1316 111.314 21.6053 111.235 22.2368L110.103 34.1316H106.577L105.445 21.8947C105.366 21.3684 105.208 19.0526 105.182 18.6579L104.945 18.6842C105.024 19.4474 105.103 22.5263 105.103 23.2895L105.287 39H100.498ZM124.727 39.3421C118.99 39.3158 118.99 34.3158 118.99 31.9211V0.868423H124.069V31.2895C124.069 33.2105 124.2 33.8947 124.937 33.9211H124.99C125.727 33.8947 125.858 33.2105 125.858 31.2895V0.868423H130.937V31.9211C130.937 34.3158 130.911 39.3158 125.2 39.3421H124.727ZM139.245 39.3158C133.508 39.3158 133.508 34.2895 133.508 31.8947V7.92105C133.508 5.52632 133.534 0.500001 139.245 0.500001H139.508C145.376 0.500001 145.403 5.34211 145.403 7.92105V18.1579H140.403L140.429 8.18421C140.429 6.47369 140.324 5.92106 139.561 5.92106H139.324C138.692 5.92106 138.587 6.52632 138.587 8.23684V31.6053C138.587 33.3158 138.666 33.8947 139.324 33.8947H139.587C140.324 33.8947 140.429 33.3684 140.429 31.6579V21.4474H145.403V31.8947C145.403 34.4737 145.403 39.3158 139.508 39.3158H139.245ZM147.966 39V0.868423H153.203V17.5H155.072V0.868423H160.335V39H155.072V22.4211H153.203V39H147.966ZM168.3 39V0.868423H174.8L175.748 12.9737C175.827 13.8421 176.011 18.7105 176.011 19.3421H176.222C176.222 18.7105 176.458 13.8421 176.537 12.9737L177.485 0.868423H183.985V39H179.195L179.379 23.1316C179.406 22.2368 179.511 19.3947 179.59 18.6842L179.353 18.6579C179.327 19.1316 179.116 21.6053 179.037 22.2368L177.906 34.1316H174.379L173.248 21.8947C173.169 21.3684 173.011 19.0526 172.985 18.6579L172.748 18.6842C172.827 19.4474 172.906 22.5263 172.906 23.2895L173.09 39H168.3ZM192.424 39.3158C186.53 39.3158 186.53 34.4737 186.53 31.8947V7.92105C186.53 5.34211 186.556 0.526316 192.424 0.473686H192.714C198.582 0.526316 198.608 5.34211 198.608 7.92105V31.8947C198.608 34.4737 198.608 39.3158 192.714 39.3158H192.424ZM191.556 31.5C191.556 33.3421 191.687 33.8947 192.53 33.8947H192.608C193.424 33.8684 193.582 33.3158 193.582 31.5V8.34211C193.582 6.5 193.451 5.94737 192.608 5.92106H192.53C191.687 5.94737 191.556 6.52632 191.556 8.34211V31.5ZM201.183 39V0.868423H206.736L208.604 17.1579C208.71 17.7368 209.025 20.5526 209.183 22.2895L209.42 22.2632C209.341 20.5263 209.21 17.7632 209.21 17.1579L208.815 0.868423H213.604V39H207.999L206.052 21.8684C205.973 21.2895 205.71 19.1316 205.552 17.5526L205.341 17.5789C205.446 19.2368 205.604 21.9211 205.604 22.5526L205.973 39H201.183ZM216.404 39V0.868423H226.036V6.28947H221.457V17.3684H226.036V22.4737H221.457V33.5789H226.036V39H216.404ZM232.394 39V24.7105L228.052 0.842108H233.473L234.684 12.3158C234.736 12.7632 234.815 14.0526 234.815 14.5263H235.026C235.026 14.0526 235.131 12.7632 235.21 12.3158L236.552 0.842108H241.92L237.578 24.7368V39H232.394ZM66.149 90V57.2895H62.9384V51.8684H74.4647V57.2895H71.2542V90H66.149ZM77.0212 90V51.8684H82.258V68.5H84.1264V51.8684H89.3896V90H84.1264V73.4211H82.258V90H77.0212ZM92.1931 90V51.8684H101.825V57.2895H97.2457V68.3684H101.825V73.4737H97.2457V84.5789H101.825V90H92.1931ZM108.183 90V75.7105L103.841 51.8421H109.262L110.473 63.3158C110.525 63.7632 110.604 65.0526 110.604 65.5263H110.815C110.815 65.0526 110.92 63.7632 110.999 63.3158L112.341 51.8421H117.709L113.367 75.7368V90H108.183ZM124.379 90V51.8684H129.615V68.5H131.484V51.8684H136.747V90H131.484V73.4211H129.615V90H124.379ZM138.37 90L142.134 51.8684H149.107L152.87 90H147.712L146.976 81.8684H144.291L143.476 90H138.37ZM144.607 76.8158L144.66 76.8684L144.765 76.8421C144.897 76.8158 144.923 76.8158 145.055 76.8158H146.186C146.291 76.8158 146.37 76.8158 146.476 76.8421L146.581 76.8684L146.66 76.8158L146.607 76.6579C146.581 76.5789 146.581 76.3947 146.555 76.3158L145.791 63.2368C145.765 62.7105 145.712 60.8947 145.712 60.4737H145.502C145.502 60.9211 145.476 62.6842 145.423 63.2368L144.686 76.3158C144.686 76.3947 144.66 76.5789 144.634 76.6579L144.607 76.8158ZM157.733 90L154.128 51.8684H159.47L160.549 71.6842C160.576 72.2632 160.655 74.5263 160.655 75.2632H160.891C160.891 74.5263 160.997 72.2368 161.023 71.6842L162.102 51.8684H167.418L163.812 90H157.733ZM169.308 90V51.8684H178.94V57.2895H174.361V68.3684H178.94V73.4737H174.361V84.5789H178.94V90H169.308Z" fill="black"/>
</svg>
