<svg width="263" height="40" viewBox="0 0 263 40" fill="none" xmlns="http://www.w3.org/2000/svg">
<path d="M0.702817 39V0.868423H10.3344V6.28947H5.75545V17.3684H10.3344V22.4737H5.75545V33.5789H10.3344V39H0.702817ZM13.1403 39V0.868423H18.6929L20.5614 17.1579C20.6666 17.7368 20.9824 20.5526 21.1403 22.2895L21.3772 22.2632C21.2982 20.5263 21.1666 17.7632 21.1666 17.1579L20.7719 0.868423H25.5614V39H19.9561L18.0087 21.8684C17.9298 21.2895 17.6666 19.1316 17.5087 17.5526L17.2982 17.5789C17.4035 19.2368 17.5614 21.9211 17.5614 22.5526L17.9298 39H13.1403ZM31.2935 39V6.28947H28.083V0.868423H39.6093V6.28947H36.3987V39H31.2935ZM42.1657 39V0.868423H51.7973V6.28947H47.2183V17.3684H51.7973V22.4737H47.2183V33.5789H51.7973V39H42.1657ZM54.6032 39V0.842108H60.6822C63.5243 0.842108 66.919 1.86842 66.919 6.60527V17.0526C66.919 18.6053 65.6558 21.0526 64.0769 21.0526V21.2632C65.3927 21.2632 66.4979 22.8421 66.4979 24.8421C66.4979 26.2105 66.5769 37.8684 66.6295 39H61.34V24.6316C61.34 24.6053 61.2611 23.3421 60.3927 23.3421H59.6558V39H54.6032ZM59.6558 18.3947H60.6295C61.5506 18.3947 61.6295 17.7368 61.6295 17.5V7.21053C61.6295 7 61.5769 6.26316 60.6032 6.26316L59.6558 6.28947V18.3947ZM76.0972 39V24.7105L71.7551 0.842108H77.1762L78.3867 12.3158C78.4394 12.7632 78.5183 14.0526 78.5183 14.5263H78.7288C78.7288 14.0526 78.8341 12.7632 78.913 12.3158L80.2551 0.842108H85.6236L81.2815 24.7368V39H76.0972ZM92.225 39.3158C86.3303 39.3158 86.3303 34.4737 86.3303 31.8947V7.92105C86.3303 5.34211 86.3566 0.526316 92.225 0.473686H92.5145C98.3829 0.526316 98.4092 5.34211 98.4092 7.92105V31.8947C98.4092 34.4737 98.4092 39.3158 92.5145 39.3158H92.225ZM91.3566 31.5C91.3566 33.3421 91.4882 33.8947 92.3303 33.8947H92.4092C93.225 33.8684 93.3829 33.3158 93.3829 31.5V8.34211C93.3829 6.5 93.2513 5.94737 92.4092 5.92106H92.3303C91.4882 5.94737 91.3566 6.52632 91.3566 8.34211V31.5ZM106.721 39.3421C100.984 39.3158 100.984 34.3158 100.984 31.9211V0.868423H106.063V31.2895C106.063 33.2105 106.195 33.8947 106.931 33.9211H106.984C107.721 33.8947 107.852 33.2105 107.852 31.2895V0.868423H112.931V31.9211C112.931 34.3158 112.905 39.3158 107.195 39.3421H106.721ZM115.765 39V0.842108H121.844C124.686 0.842108 128.081 1.86842 128.081 6.60527V17.0526C128.081 18.6053 126.818 21.0526 125.239 21.0526V21.2632C126.555 21.2632 127.66 22.8421 127.66 24.8421C127.66 26.2105 127.739 37.8684 127.792 39H122.502V24.6316C122.502 24.6053 122.423 23.3421 121.555 23.3421H120.818V39H115.765ZM120.818 18.3947H121.792C122.713 18.3947 122.792 17.7368 122.792 17.5V7.21053C122.792 7 122.739 6.26316 121.765 6.26316L120.818 6.28947V18.3947ZM135.806 39V0.868423H145.491V6.28947H140.859V17.6579H145.069V22.6053H140.859V39H135.806ZM148.049 39V0.868423H153.285V39H148.049ZM156.091 39V0.842108H162.17C165.013 0.842108 168.407 1.86842 168.407 6.60527V17.0526C168.407 18.6053 167.144 21.0526 165.565 21.0526V21.2632C166.881 21.2632 167.986 22.8421 167.986 24.8421C167.986 26.2105 168.065 37.8684 168.118 39H162.828V24.6316C162.828 24.6053 162.749 23.3421 161.881 23.3421H161.144V39H156.091ZM161.144 18.3947H162.118C163.039 18.3947 163.118 17.7368 163.118 17.5V7.21053C163.118 7 163.065 6.26316 162.091 6.26316L161.144 6.28947V18.3947ZM176.64 39.3158C172.613 39.3158 170.561 37.0263 170.561 32.5789V23.5263H175.64V32.5789C175.64 33.4474 176.219 33.8684 176.587 33.8684H176.64C177.14 33.8684 177.455 33.6053 177.455 33.2105V24.2895C177.455 23.5789 176.929 22.5263 175.219 21.8421C173.008 20.9737 170.64 18.8421 170.64 15.2105V5.94737C170.64 2.10526 172.877 0.473686 176.587 0.473686H176.666C179.482 0.473686 182.798 1.57895 182.798 6.6579V16.1316H177.745V7.10527C177.745 6.55263 177.534 5.92106 176.824 5.92106H176.771C176.35 5.92106 176.034 6.18421 176.034 6.55263V15.4737C176.034 16.2105 176.64 17.1316 178.061 17.7368C180.087 18.6842 182.824 20.7632 182.85 24.4211V33.6842C182.85 37.3684 180.587 39.3158 176.719 39.3158H176.64ZM188.489 39V6.28947H185.278V0.868423H196.805V6.28947H193.594V39H188.489ZM203.595 39V0.868423H209.148L211.016 17.1579C211.122 17.7368 211.437 20.5526 211.595 22.2895L211.832 22.2632C211.753 20.5263 211.622 17.7632 211.622 17.1579L211.227 0.868423H216.016V39H210.411L208.464 21.8684C208.385 21.2895 208.122 19.1316 207.964 17.5526L207.753 17.5789C207.859 19.2368 208.016 21.9211 208.016 22.5526L208.385 39H203.595ZM217.636 39L221.399 0.868423H228.373L232.136 39H226.978L226.241 30.8684H223.557L222.741 39H217.636ZM223.873 25.8158L223.925 25.8684L224.031 25.8421C224.162 25.8158 224.189 25.8158 224.32 25.8158H225.452C225.557 25.8158 225.636 25.8158 225.741 25.8421L225.847 25.8684L225.925 25.8158L225.873 25.6579C225.847 25.5789 225.847 25.3947 225.82 25.3158L225.057 12.2368C225.031 11.7105 224.978 9.89474 224.978 9.47369H224.768C224.768 9.92105 224.741 11.6842 224.689 12.2368L223.952 25.3158C223.952 25.3947 223.925 25.5789 223.899 25.6579L223.873 25.8158ZM234.183 39V0.868423H240.683L241.631 12.9737C241.71 13.8421 241.894 18.7105 241.894 19.3421H242.104C242.104 18.7105 242.341 13.8421 242.42 12.9737L243.367 0.868423H249.867V39H245.078L245.262 23.1316C245.289 22.2368 245.394 19.3947 245.473 18.6842L245.236 18.6579C245.21 19.1316 244.999 21.6053 244.92 22.2368L243.789 34.1316H240.262L239.131 21.8947C239.052 21.3684 238.894 19.0526 238.867 18.6579L238.631 18.6842C238.71 19.4474 238.789 22.5263 238.789 23.2895L238.973 39H234.183ZM252.675 39V0.868423H262.307V6.28947H257.728V17.3684H262.307V22.4737H257.728V33.5789H262.307V39H252.675Z" fill="black"/>
</svg>
