<svg width="163" height="40" viewBox="0 0 163 40" fill="none" xmlns="http://www.w3.org/2000/svg">
<path d="M6.51958 39.3158C2.49327 39.3158 0.440635 37.0263 0.440635 32.5789V23.5263H5.51958V32.5789C5.51958 33.4474 6.09853 33.8684 6.46695 33.8684H6.51958C7.01958 33.8684 7.33537 33.6053 7.33537 33.2105V24.2895C7.33537 23.5789 6.80906 22.5263 5.09853 21.8421C2.888 20.9737 0.519583 18.8421 0.519583 15.2105V5.94737C0.519583 2.10526 2.75642 0.473686 6.46695 0.473686H6.5459C9.36169 0.473686 12.6775 1.57895 12.6775 6.6579V16.1316H7.62485V7.10527C7.62485 6.55263 7.41432 5.92106 6.70379 5.92106H6.65116C6.23011 5.92106 5.91432 6.18421 5.91432 6.55263V15.4737C5.91432 16.2105 6.51958 17.1316 7.94063 17.7368C9.96695 18.6842 12.7038 20.7632 12.7301 24.4211V33.6842C12.7301 37.3684 10.467 39.3158 6.59853 39.3158H6.51958ZM15.2897 39V0.868423H20.5266V39H15.2897ZM28.1748 39.3158C24.8853 39.3158 23.0695 36.5789 23.0695 31.8158V7.92105C23.0695 5.34211 23.0959 0.500001 28.9643 0.500001H29.438C34.438 0.500001 35.2801 3.89474 35.3327 6.81579V14.6842H30.2801V7.02632C30.2801 6.23684 29.7011 5.92106 29.2801 5.92106H29.1222C28.2801 5.94737 28.1485 6.52632 28.1485 8.34211V31.1316C28.1485 33 28.2801 33.8684 29.0959 33.8947H29.2538C30.0432 33.8684 30.2801 33.3947 30.2801 32.6579V22.3421H29.0432V17.8421H35.359V38.9737H31.9643V36.4211H31.7274C31.7011 36.7105 31.6748 37 31.6222 37.2895C31.3853 38.7105 30.0169 39.3158 28.5169 39.3158H28.1748ZM38.1628 39V0.868423H43.7154L45.5838 17.1579C45.6891 17.7368 46.0049 20.5526 46.1628 22.2895L46.3996 22.2632C46.3207 20.5263 46.1891 17.7632 46.1891 17.1579L45.7944 0.868423H50.5838V39H44.9786L43.0312 21.8684C42.9523 21.2895 42.6891 19.1316 42.5312 17.5526L42.3207 17.5789C42.4259 19.2368 42.5838 21.9211 42.5838 22.5526L42.9523 39H38.1628ZM64.2824 39.3421C58.5456 39.3158 58.5456 34.3158 58.5456 31.9211V0.868423H63.6245V31.2895C63.6245 33.2105 63.7561 33.8947 64.493 33.9211H64.5456C65.2824 33.8947 65.414 33.2105 65.414 31.2895V0.868423H70.493V31.9211C70.493 34.3158 70.4666 39.3158 64.7561 39.3421H64.2824ZM73.3268 39V0.842108H79.5637C83.3532 0.842108 85.5637 3.1579 85.5637 7.10527V17.6842C85.5637 21.7105 83.4321 23.9474 79.59 23.9474H78.3795V39H73.3268ZM78.3795 18.8158H79.3268C80.0374 18.8158 80.4321 18.3684 80.4321 17.5526V7.57895C80.4321 7.21053 80.2216 6.28947 79.2742 6.28947H78.3795V18.8158ZM95.8609 39V6.28947H92.6503V0.868423H104.177V6.28947H100.966V39H95.8609ZM112.511 39.3158C106.616 39.3158 106.616 34.4737 106.616 31.8947V7.92105C106.616 5.34211 106.643 0.526316 112.511 0.473686H112.801C118.669 0.526316 118.695 5.34211 118.695 7.92105V31.8947C118.695 34.4737 118.695 39.3158 112.801 39.3158H112.511ZM111.643 31.5C111.643 33.3421 111.774 33.8947 112.616 33.8947H112.695C113.511 33.8684 113.669 33.3158 113.669 31.5V8.34211C113.669 6.5 113.537 5.94737 112.695 5.92106H112.616C111.774 5.94737 111.643 6.52632 111.643 8.34211V31.5ZM131.467 39.3158C127.441 39.3158 125.388 37.0263 125.388 32.5789V23.5263H130.467V32.5789C130.467 33.4474 131.046 33.8684 131.414 33.8684H131.467C131.967 33.8684 132.283 33.6053 132.283 33.2105V24.2895C132.283 23.5789 131.756 22.5263 130.046 21.8421C127.835 20.9737 125.467 18.8421 125.467 15.2105V5.94737C125.467 2.10526 127.704 0.473686 131.414 0.473686H131.493C134.309 0.473686 137.625 1.57895 137.625 6.6579V16.1316H132.572V7.10527C132.572 6.55263 132.362 5.92106 131.651 5.92106H131.598C131.177 5.92106 130.862 6.18421 130.862 6.55263V15.4737C130.862 16.2105 131.467 17.1316 132.888 17.7368C134.914 18.6842 137.651 20.7632 137.677 24.4211V33.6842C137.677 37.3684 135.414 39.3158 131.546 39.3158H131.467ZM140.237 39V0.868423H149.869V6.28947H145.29V17.3684H149.869V22.4737H145.29V33.5789H149.869V39H140.237ZM152.674 39V0.868423H162.306V6.28947H157.727V17.3684H162.306V22.4737H157.727V33.5789H162.306V39H152.674Z" fill="black"/>
</svg>
