<svg width="200" height="40" viewBox="0 0 200 40" fill="none" xmlns="http://www.w3.org/2000/svg">
<path d="M0.132568 38.9999V0.868371H5.6852L7.55362 17.1578C7.65888 17.7368 7.97467 20.5526 8.13257 22.2894L8.36941 22.2631C8.29046 20.5263 8.15888 17.7631 8.15888 17.1578L7.76415 0.868371H12.5536V38.9999H6.94836L5.00099 21.8684C4.92204 21.2894 4.65888 19.1315 4.50099 17.5526L4.29046 17.5789C4.39573 19.2368 4.55362 21.921 4.55362 22.5526L4.92204 38.9999H0.132568Z" fill="black"/>
<path d="M20.9848 39.3157C15.0901 39.3157 15.0901 34.4736 15.0901 31.8947V7.921C15.0901 5.34205 15.1164 0.526264 20.9848 0.473633H21.2743C27.1427 0.526264 27.1691 5.34205 27.1691 7.921V31.8947C27.1691 34.4736 27.1691 39.3157 21.2743 39.3157H20.9848ZM20.1164 31.4999C20.1164 33.3421 20.248 33.8947 21.0901 33.8947H21.1691C21.9849 33.8684 22.1427 33.3157 22.1427 31.4999V8.34205C22.1427 6.49995 22.0112 5.94732 21.1691 5.921H21.0901C20.248 5.94732 20.1164 6.52626 20.1164 8.34205V31.4999Z" fill="black"/>
<path d="M44.7606 39.3157C39.0237 39.3157 39.0237 34.2894 39.0237 31.8947V7.921C39.0237 5.52626 39.05 0.499948 44.7606 0.499948H45.0237C50.8921 0.499948 50.9184 5.34205 50.9184 7.921V18.1578H45.9184L45.9448 8.18416C45.9448 6.47363 45.8395 5.921 45.0763 5.921H44.8395C44.2079 5.921 44.1027 6.52626 44.1027 8.23679V31.6052C44.1027 33.3157 44.1816 33.8947 44.8395 33.8947H45.1027C45.8395 33.8947 45.9448 33.3684 45.9448 31.6578V21.4473H50.9184V31.8947C50.9184 34.4736 50.9184 39.3157 45.0237 39.3157H44.7606Z" fill="black"/>
<path d="M59.2602 39.3157C53.3655 39.3157 53.3655 34.4736 53.3655 31.8947V7.921C53.3655 5.34205 53.3918 0.526264 59.2602 0.473633H59.5497C65.4181 0.526264 65.4445 5.34205 65.4445 7.921V31.8947C65.4445 34.4736 65.4445 39.3157 59.5497 39.3157H59.2602ZM58.3918 31.4999C58.3918 33.3421 58.5234 33.8947 59.3655 33.8947H59.4445C60.2602 33.8684 60.4181 33.3157 60.4181 31.4999V8.34205C60.4181 6.49995 60.2866 5.94732 59.4445 5.921H59.3655C58.5234 5.94732 58.3918 6.52626 58.3918 8.34205V31.4999Z" fill="black"/>
<path d="M68.0193 38.9999V0.868371H73.5719L75.4403 17.1578C75.5456 17.7368 75.8614 20.5526 76.0193 22.2894L76.2561 22.2631C76.1772 20.5263 76.0456 17.7631 76.0456 17.1578L75.6509 0.868371H80.4403V38.9999H74.8351L72.8877 21.8684C72.8088 21.2894 72.5456 19.1315 72.3877 17.5526L72.1772 17.5789C72.2824 19.2368 72.4403 21.921 72.4403 22.5526L72.8088 38.9999H68.0193Z" fill="black"/>
<path d="M86.1724 38.9999V6.28942H82.9619V0.868371H94.4882V6.28942H91.2777V38.9999H86.1724Z" fill="black"/>
<path d="M94.3021 38.9999L98.0652 0.868371H105.039L108.802 38.9999H103.644L102.907 30.8684H100.223L99.4073 38.9999H94.3021ZM100.539 25.8157L100.592 25.8684L100.697 25.8421C100.828 25.8157 100.855 25.8157 100.986 25.8157H102.118C102.223 25.8157 102.302 25.8157 102.407 25.8421L102.513 25.8684L102.592 25.8157L102.539 25.6578C102.513 25.5789 102.513 25.3947 102.486 25.3157L101.723 12.2368C101.697 11.7105 101.644 9.89469 101.644 9.47363H101.434C101.434 9.921 101.407 11.6842 101.355 12.2368L100.618 25.3157C100.618 25.3947 100.592 25.5789 100.565 25.6578L100.539 25.8157Z" fill="black"/>
<path d="M116.323 39.3157C110.586 39.3157 110.586 34.2894 110.586 31.8947V7.921C110.586 5.52626 110.613 0.499948 116.323 0.499948H116.586C122.455 0.499948 122.481 5.34205 122.481 7.921V18.1578H117.481L117.507 8.18416C117.507 6.47363 117.402 5.921 116.639 5.921H116.402C115.77 5.921 115.665 6.52626 115.665 8.23679V31.6052C115.665 33.3157 115.744 33.8947 116.402 33.8947H116.665C117.402 33.8947 117.507 33.3684 117.507 31.6578V21.4473H122.481V31.8947C122.481 34.4736 122.481 39.3157 116.586 39.3157H116.323Z" fill="black"/>
<path d="M128.124 38.9999V6.28942H124.913V0.868371H136.439V6.28942H133.229V38.9999H128.124Z" fill="black"/>
<path d="M144.958 39.3157C140.932 39.3157 138.879 37.0263 138.879 32.5789V23.5263H143.958V32.5789C143.958 33.4473 144.537 33.8684 144.905 33.8684H144.958C145.458 33.8684 145.774 33.6052 145.774 33.2105V24.2894C145.774 23.5789 145.248 22.5263 143.537 21.8421C141.327 20.9736 138.958 18.8421 138.958 15.2105V5.94732C138.958 2.10521 141.195 0.473633 144.905 0.473633H144.984C147.8 0.473633 151.116 1.5789 151.116 6.65784V16.1315H146.063V7.10521C146.063 6.55258 145.853 5.921 145.142 5.921H145.09C144.669 5.921 144.353 6.18416 144.353 6.55258V15.4736C144.353 16.2105 144.958 17.1315 146.379 17.7368C148.405 18.6842 151.142 20.7631 151.169 24.421V33.6842C151.169 37.3684 148.905 39.3157 145.037 39.3157H144.958Z" fill="black"/>
<path d="M164.968 38.9999V24.7105L160.626 0.842055H166.047L167.258 12.3157C167.311 12.7631 167.389 14.0526 167.389 14.5263H167.6C167.6 14.0526 167.705 12.7631 167.784 12.3157L169.126 0.842055H174.495L170.153 24.7368V38.9999H164.968Z" fill="black"/>
<path d="M176.295 38.9999V0.868371H185.926V6.28942H181.347V17.3684H185.926V22.4736H181.347V33.5789H185.926V38.9999H176.295Z" fill="black"/>
<path d="M191.665 38.9999V6.28942H188.454V0.868371H199.98V6.28942H196.77V38.9999H191.665Z" fill="black"/>
</svg>
